# AST/ASF file generated using VICON BodyLanguage
# -----------------------------------------------
:version 1.10
:name VICON
:units
  mass 1.0
  length 0.45
  angle deg
:documentation
   .ast/.asf automatically generated from VICON data using
   VICON BodyBuilder and BodyLanguage model FoxedUp or BRILLIANT.MOD
:root
   order TX TY TZ RX RY RZ
   axis XYZ
   position 0 0 0  
   orientation 0 0 0 
:bonedata
  begin
     id 1 
     name lhipjoint
     direction 0.561145 -0.797705 0.220866 
     length 2.46425 
     axis 0 0 0  XYZ
  end
  begin
     id 2 
     name lfemur
     direction 0.34202 -0.939693 0  
     length 7.95556  
     axis 0 0 20  XYZ
    dof rx ry rz
    limits (-160.0 20.0)
           (-70.0 70.0)
           (-60.0 70.0)
  end
  begin
     id 3 
     name ltibia
     direction 0.34202 -0.939693 0   
     length 7.9832   
     axis 0 0 20   XYZ
    dof rx
    limits (-10.0 170.0)
  end
  begin
     id 4 
     name lfoot
     direction 0.0723927 -0.198897 0.977343   
     length 2.23085   
     axis -90 7.62852e-016 20   XYZ
    dof rx rz
    limits (-45.0 90.0)
           (-70.0 20.0)
  end
  begin
     id 5 
     name ltoes
     direction 1.53826e-011 -4.21988e-011 1   
     length 1.12127   
     axis -90 7.62852e-016 20   XYZ
    dof rx
    limits (-90.0 20.0)
  end
  begin
     id 6 
     name rhipjoint
     direction -0.610499 -0.763299 0.21134   
     length 2.57533  
     axis 0 0 0  XYZ 
  end
  begin
     id 7 
     name rfemur
     direction -0.34202 -0.939693 0   
     length 8.65257   
     axis 0 0 -20   XYZ
    dof rx ry rz
    limits (-160.0 20.0)
           (-70.0 70.0)
           (-70.0 60.0)
  end
  begin
     id 8 
     name rtibia
     direction -0.342021 -0.939692 0   
     length 7.37807   
     axis 0 0 -20   XYZ
    dof rx
    limits (-10.0 170.0)
 end
 begin
     id 9 
     name rfoot
     direction -0.0239304 -0.0543852 0.998233   
     length 1.87018  
     axis -90 -7.62852e-016 -20   XYZ
    dof rx rz
    limits (-45.0 90.0)
           (-20.0 70.0)
  end
  begin
     id 10 
     name rtoes
     direction -1.53584e-011 -4.2242e-011 1   
     length 0.951568   
     axis -90 -7.62852e-016 -20   XYZ
    dof rx
    limits (-90.0 20.0)
  end
  begin
     id 11 
     name lowerback
     direction 0.00322089 0.999033 0.0438587   
     length 2.07568   
     axis 0 0 0   XYZ
    dof rx ry rz
    limits (-20.0 45.0)
           (-30.0 30.0)
           (-30.0 30.0)
  end
  begin
     id 12 
     name upperback
     direction -0.00321932 0.999732 -0.0229403   
     length 2.06253   
     axis 0 0 0   XYZ
    dof rx ry rz
    limits (-20.0 45.0)
           (-30.0 30.0)
           (-30.0 30.0)
  end
  begin
     id 13 
     name thorax
     direction -0.00537537 0.998955 -0.0453918   
     length 2.06975   
     axis 0 0 0   XYZ
    dof rx ry rz
    limits (-20.0 45.0)
           (-30.0 30.0)
           (-30.0 30.0)
  end
  begin
     id 14 
     name lowerneck
     direction -0.00013604 0.994111 0.108363   
     length 1.50836   
     axis 0 0 0   XYZ
    dof rx ry rz
    limits (-20.0 45.0)
           (-30.0 30.0)
           (-30.0 30.0)
  end
  begin
     id 15 
     name upperneck
     direction 0.0397262 0.983859 -0.174482   
     length 1.53037   
     axis 0 0 0   XYZ
    dof rx ry rz
    limits (-20.0 45.0)
           (-30.0 30.0)
           (-30.0 30.0)
  end
  begin
     id 16
     name head
     direction 0.0109991 0.997082 -0.0755378  
     length 1.56928  
     axis 0 0 0   XYZ
    dof rx ry rz
    limits (-20.0 45.0)
           (-30.0 30.0)
           (-30.0 30.0)
  end
  begin
     id 17 
     name lclavicle
     direction 0.964749 0.254 -0.068874  
     length 3.26503  
     axis 0 0 0   XYZ
    dof ry rz
    limits (-20.0 10.0)
           (0.0 20.0)
  end
  begin
     id 18 
     name lhumerus
     direction 1 -4.48941e-011 -2.05079e-027   
     length 5.68236   
     axis 180 -30 -90   XYZ
    dof rx ry rz
    limits (-60.0 90.0)
           (-90.0 90.0)
           (-90.0 90.0)
  end
  begin
     id 19
     name lradius
     direction 1 -4.48956e-011 6.2882e-027   
     length 3.17112   
     axis 180 -30 -90   XYZ
    dof rx
    limits (-10.0 170.0)
  end
  begin
     id 20
     name lwrist
     direction 1 -4.49014e-011 1.73219e-026   
     length 1.58556   
     axis -1.04724e-014 90 90   XYZ
    dof ry
    limits (-180.0 0.0)
 end
  begin
     id 21 
     name lhand
     direction 1 -4.49312e-011 3.46438e-026   
     length 0.632691   
     axis -2.21057e-014 90 90   XYZ
    dof rx rz
    limits (-90.0 90.0)
           (-45.0 45.0)
  end
  begin
     id 22 
     name lfingers
     direction 1 -4.48894e-011 6.92876e-026   
     length 0.510091   
     axis -4.42114e-014 90 90   XYZ
    dof rx
    limits (0.0 90.0)
  end
  begin
     id 23
     name lthumb
     direction 0.707107 -6.34705e-011 0.707107   
     length 0.732392   
     axis -90 45 2.85299e-015   XYZ
    dof rx rz
    limits (-45.0 45.0)
           (-45.0 45.0)
  end
  begin
     id 24 
     name rclavicle
     direction -0.954374 0.280496 -0.102435   
     length 3.25419  
     axis 0 0 0   XYZ 
    dof ry rz
    limits (-10.0 20.0)
           (-20.0 0.0)
  end
  begin
     id 25 
     name rhumerus
     direction -1 -4.48994e-011 -1.07204e-017  
     length 5.8712   
     axis 180 30 90   XYZ
    dof rx ry rz
    limits (-90.0 60.0)
           (-90.0 90.0)
           (-90.0 90.0)
  end
  begin
     id 26 
     name rradius
     direction -1 -4.48972e-011 5.89292e-027   
     length 3.37589   
     axis 180 30 90   XYZ
    dof rx
    limits (-10.0 170.0)
  end
  begin
     id 27 
     name rwrist
     direction -1 -4.48942e-011 1.73219e-026   
     length 1.68794   
     axis -1.04724e-014 -90 -90   XYZ
    dof ry
    limits (-180.0 0.0)
  end
  begin
     id 28
     name rhand
     direction -1 -4.48514e-011 3.46438e-026   
     length 0.603257   
     axis -2.21057e-014 -90 -90   XYZ
    dof rx rz
    limits (-90.0 90.0)
           (-45.0 45.0)
  end
  begin
     id 29
     name rfingers
     direction -1 -4.50028e-011 6.92876e-026   
     length 0.486362   
     axis -4.42114e-014 -90 -90   XYZ
    dof rx
    limits (0.0 90.0)
  end
  begin
     id 30
     name rthumb
     direction -0.707107 -6.34926e-011 0.707107   
     length 0.698321   
     axis -90 -45 -2.85299e-015   XYZ
    dof rx rz
    limits (-45.0 45.0)
           (-45.0 45.0)
  end
:hierarchy
  begin
    root lhipjoint rhipjoint lowerback
    lhipjoint lfemur
    lfemur ltibia
    ltibia lfoot
    lfoot ltoes
    rhipjoint rfemur
    rfemur rtibia
    rtibia rfoot
    rfoot rtoes
    lowerback upperback
    upperback thorax
    thorax lowerneck lclavicle rclavicle
    lowerneck upperneck
    upperneck head
    lclavicle lhumerus
    lhumerus lradius
    lradius lwrist
    lwrist lhand lthumb
    lhand lfingers
    rclavicle rhumerus
    rhumerus rradius
    rradius rwrist
    rwrist rhand rthumb
    rhand rfingers
  end

#!OML:ASF I:\Segmentation\Patient Classification 1\Patient 1\Session 1\Patient1.ASF
:FULLY-SPECIFIED
:DEGREES
3446
root 14.0672 18.6438 -0.0275211 -27.9058 -88.7963 -327.584
lowerback -8.18756 0.455386 0.774152
upperback 2.93513 0.444366 0.934226
thorax 7.6906 0.225386 0.613141
lowerneck -14.6025 -4.75469 -2.87929
upperneck 14.073 -6.75896 5.01376
head 6.97733 -2.99061 1.38643
rclavicle 9.14409e-015 1.27222e-014
rhumerus -2.85439 19.2649 -97.5275
rradius 104.104
rwrist -51.4454
rhand -36.049 -0.0658158
rfingers 7.12502
rthumb -9.15711 -29.847
lclavicle 9.14409e-015 1.27222e-014
lhumerus 6.71457 -30.5582 85.6024
lradius 104.064
lwrist 2.68928
lhand -31.1797 34.0432
lfingers 7.12502
lthumb -4.4567 63.9763
rfemur -11.1059 9.76285 15.8005
rtibia 21.211
rfoot -1.78799 14.0456
rtoes 25.8703
lfemur -10.4389 -8.53404 -16.9959
ltibia 20.4186
lfoot -28.1623 14.6039
ltoes 2.52675
3447
root 14.0661 18.644 -0.0272411 -29.5 -88.8636 -325.981
lowerback -8.20905 0.476023 0.885003
upperback 2.92536 0.464636 0.866639
thorax 7.694 0.242725 0.482754
lowerneck -14.6392 -4.73092 -2.7948
upperneck 14.0975 -6.7445 5.0046
head 6.98783 -2.97915 1.37051
rclavicle 1.93815e-015 -5.1684e-015
rhumerus -2.5784 20.8435 -97.8145
rradius 104.509
rwrist -51.2903
rhand -35.5903 0.0840535
rfingers 7.12502
rthumb -8.71446 -29.7161
lclavicle 1.93815e-015 -5.1684e-015
lhumerus 6.75811 -32.1217 85.1924
lradius 103.131
lwrist 2.55191
lhand -29.5413 33.4896
lfingers 7.12502
lthumb -2.87446 63.45
rfemur -11.1161 9.77384 15.8034
rtibia 21.1937
rfoot -1.76434 13.9941
rtoes 25.823
lfemur -10.4469 -8.40422 -16.9904
ltibia 20.4448
lfoot -28.0907 14.6261
ltoes 2.24395
3448
root 14.0646 18.6441 -0.0265945 -31.917 -88.9068 -323.563
lowerback -8.20496 0.493744 0.935575
upperback 2.89828 0.486276 0.827741
thorax 7.66339 0.256945 0.416251
lowerneck -14.6605 -4.71293 -2.74797
upperneck 14.1298 -6.72752 4.97942
head 6.99873 -2.96996 1.35604
rclavicle -4.42296e-015 -1.19271e-014
rhumerus -2.33195 22.43 -98.0265
rradius 104.911
rwrist -51.1997
rhand -35.1405 0.214916
rfingers 7.12502
rthumb -8.28036 -29.6028
lclavicle -4.42296e-015 -1.19271e-014
lhumerus 6.85521 -33.6885 84.7822
lradius 102.161
lwrist 2.42549
lhand -27.7928 32.8071
lfingers 7.12502
lthumb -1.1858 62.7835
rfemur -11.1217 9.77279 15.7806
rtibia 21.1901
rfoot -1.72046 13.9505
rtoes 25.7703
lfemur -10.4369 -8.31257 -17.0129
ltibia 20.4502
lfoot -28.0825 14.6038
ltoes 2.3041
3449
root 14.063 18.6441 -0.0259085 -33.7137 -88.9211 -321.77
lowerback -8.16982 0.501304 0.924264
upperback 2.85324 0.49818 0.838808
thorax 7.59458 0.261914 0.435191
lowerneck -14.6681 -4.70219 -2.75547
upperneck 14.1736 -6.70441 4.92767
head 7.01156 -2.96296 1.34264
rclavicle 5.36719e-015 7.55382e-015
rhumerus -2.12849 23.918 -98.1398
rradius 105.269
rwrist -51.291
rhand -35.066 0.169983
rfingers 7.12502
rthumb -8.20847 -29.6506
lclavicle 5.36719e-015 7.55382e-015
lhumerus 6.98955 -35.171 84.4274
lradius 101.195
lwrist 2.28524
lhand -26.6912 32.1654
lfingers 7.12502
lthumb -0.121835 62.1451
rfemur -11.1201 9.76555 15.7557
rtibia 21.1978
rfoot -1.6715 13.9282
rtoes 25.7242
lfemur -10.4183 -8.24212 -17.0406
ltibia 20.4389
lfoot -28.094 14.5429
ltoes 2.58755
3450
root 14.0613 18.6439 -0.0254265 -34.247 -88.9096 -321.248
lowerback -8.11448 0.495515 0.874999
upperback 2.80206 0.493949 0.887239
thorax 7.5069 0.256119 0.512111
lowerneck -14.6796 -4.69508 -2.80591
upperneck 14.2344 -6.67465 4.86031
head 7.03111 -2.95603 1.33165
rclavicle -9.44227e-016 1.11319e-014
rhumerus -1.98911 25.1304 -98.2017
rradius 105.548
rwrist -51.6366
rhand -35.5013 -0.119688
rfingers 7.12502
rthumb -8.62859 -29.9234
lclavicle -9.44227e-016 1.11319e-014
lhumerus 7.14218 -36.4409 84.145
lradius 100.314
lwrist 2.1459
lhand -26.7656 31.8378
lfingers 7.12502
lthumb -0.193681 61.8175
rfemur -11.1077 9.7539 15.7403
rtibia 21.2133
rfoot -1.62652 13.928
rtoes 25.691
lfemur -10.3946 -8.17949 -17.0632
ltibia 20.4166
lfoot -28.092 14.4645
ltoes 2.91566
3451
root 14.0596 18.6437 -0.0251673 -33.7234 -88.8807 -321.786
lowerback -8.06794 0.481383 0.843192
upperback 2.76636 0.476848 0.926724
thorax 7.44124 0.245152 0.568174
lowerneck -14.72 -4.68554 -2.85603
upperneck 14.3112 -6.64477 4.80886
head 7.06146 -2.94698 1.32502
rclavicle -6.11263e-015 1.19271e-015
rhumerus -1.92738 25.9025 -98.3008
rradius 105.743
rwrist -52.1826
rhand -36.099 -0.554842
rfingers 7.12502
rthumb -9.20529 -30.3339
lclavicle -6.11263e-015 1.19271e-015
lhumerus 7.29671 -37.3636 83.9127
lradius 99.6305
lwrist 2.08564
lhand -27.8564 32.0452
lfingers 7.12502
lthumb -1.24724 62.0213
rfemur -11.0874 9.74017 15.7353
rtibia 21.2326
rfoot -1.59122 13.9441
rtoes 25.6718
lfemur -10.3686 -8.13239 -17.0784
ltibia 20.3887
lfoot -28.0736 14.3984
ltoes 3.13391
3452
root 14.058 18.6434 -0.0250692 -32.9454 -88.8389 -322.584
lowerback -8.04508 0.467968 0.874597
upperback 2.76149 0.457426 0.906079
thorax 7.4233 0.237703 0.525726
lowerneck -14.8057 -4.66913 -2.84785
upperneck 14.3975 -6.62521 4.79617
head 7.10274 -2.9356 1.31935
rclavicle -1.14301e-015 1.19271e-015
rhumerus -1.95499 26.1708 -98.5077
rradius 105.878
rwrist -52.7364
rhand -36.4384 -1.0074
rfingers 7.12502
rthumb -9.53278 -30.7718
lclavicle -1.14301e-015 1.19271e-015
lhumerus 7.41642 -37.8508 83.7135
lradius 99.2367
lwrist 2.16939
lhand -29.3649 32.6626
lfingers 7.12502
lthumb -2.70411 62.6252
rfemur -11.057 9.73249 15.7299
rtibia 21.2488
rfoot -1.57655 13.9764
rtoes 25.6645
lfemur -10.3388 -8.09937 -17.0963
ltibia 20.3624
lfoot -28.0321 14.3629
ltoes 3.15899
3453
root 14.0568 18.6432 -0.025048 -32.3219 -88.7954 -323.233
lowerback -8.04686 0.460865 0.964039
upperback 2.78783 0.443658 0.825999
thorax 7.45388 0.237431 0.389544
lowerneck -14.9268 -4.64633 -2.76571
upperneck 14.4723 -6.61773 4.81346
head 7.1456 -2.92296 1.3095
rclavicle 5.56597e-015 7.95139e-016
rhumerus -2.06763 26.0282 -98.7993
rradius 105.981
rwrist -53.0607
rhand -36.1056 -1.37707
rfingers 7.12502
rthumb -9.21169 -31.1559
lclavicle 5.56597e-015 7.95139e-016
lhumerus 7.44439 -37.8735 83.5992
lradius 99.1422
lwrist 2.36076
lhand -30.4209 33.0981
lfingers 7.12502
lthumb -3.72396 63.0453
rfemur -11.0157 9.74099 15.7225
rtibia 21.2533
rfoot -1.58913 14.0273
rtoes 25.6654
lfemur -10.3065 -8.07456 -17.1167
ltibia 20.3468
lfoot -27.9738 14.345
ltoes 3.06092
3454
root 14.0556 18.6432 -0.0250707 -31.4978 -88.7666 -324.082
lowerback -8.08184 0.463294 1.09132
upperback 2.84254 0.439583 0.716841
thorax 7.53458 0.24467 0.203437
lowerneck -15.0656 -4.62349 -2.63287
upperneck 14.5063 -6.62311 4.85274
head 7.17803 -2.91193 1.29712
rclavicle -4.96962e-017 2.38542e-015
rhumerus -2.21818 25.6621 -99.092
rradius 106.072
rwrist -53.0033
rhand -35.0494 -1.60651
rfingers 7.12502
rthumb -8.19247 -31.4277
lclavicle -4.96962e-017 2.38542e-015
lhumerus 7.36555 -37.4953 83.6053
lradius 99.2731
lwrist 2.54991
lhand -30.4501 32.8187
lfingers 7.12502
lthumb -3.75217 62.7654
rfemur -10.9715 9.77038 15.7275
rtibia 21.2414
rfoot -1.62582 14.0954
rtoes 25.6587
lfemur -10.2805 -8.0618 -17.1204
ltibia 20.3473
lfoot -27.9265 14.3191
ltoes 2.97232
3455
root 14.0545 18.6433 -0.0252032 -30.2075 -88.7569 -325.387
lowerback -8.14907 0.476116 1.24247
upperback 2.91966 0.446575 0.595755
thorax 7.65854 0.259172 -0.00668237
lowerneck -15.2078 -4.60769 -2.473
upperneck 14.4793 -6.64532 4.91692
head 7.19193 -2.90598 1.28695
rclavicle 3.8266e-015 -5.1684e-015
rhumerus -2.34597 25.2517 -99.3183
rradius 106.147
rwrist -52.5832
rhand -33.8105 -1.63038
rfingers 7.12502
rthumb -6.99668 -31.4947
lclavicle 3.8266e-015 -5.1684e-015
lhumerus 7.22897 -36.8668 83.6823
lradius 99.5237
lwrist 2.66258
lhand -29.6054 31.8248
lfingers 7.12502
lthumb -2.93637 61.7844
rfemur -10.9313 9.81745 15.7522
rtibia 21.2136
rfoot -1.68034 14.1734
rtoes 25.6354
lfemur -10.2672 -8.06206 -17.0982
ltibia 20.363
lfoot -27.9135 14.2694
ltoes 2.99586
3456
root 14.0534 18.6436 -0.0255948 -28.7058 -88.7586 -326.897
lowerback -8.22734 0.49385 1.38645
upperback 3.00533 0.459991 0.47985
thorax 7.79838 0.276753 -0.206388
lowerneck -15.327 -4.60234 -2.32205
upperneck 14.3827 -6.67997 5.00244
head 7.18083 -2.90601 1.2847
rclavicle -2.33572e-015 3.18055e-015
rhumerus -2.42459 24.9194 -99.4344
rradius 106.186
rwrist -51.9624
rhand -32.8974 -1.35297
rfingers 7.12502
rthumb -6.11514 -31.2447
lclavicle -2.33572e-015 3.18055e-015
lhumerus 7.10123 -36.1404 83.767
lradius 99.8182
lwrist 2.72872
lhand -28.2841 30.5238
lfingers 7.12502
lthumb -1.66031 60.4971
rfemur -10.8944 9.87485 15.7875
rtibia 21.1757
rfoot -1.74281 14.2523
rtoes 25.6065
lfemur -10.263 -8.07101 -17.0612
ltibia 20.3868
lfoot -27.936 14.1982
ltoes 3.13541
3457
root 14.052 18.6439 -0.0265015 -27.4643 -88.7614 -328.149
lowerback -8.28767 0.509701 1.48106
upperback 3.07874 0.474655 0.393066
thorax 7.91427 0.291837 -0.347844
lowerneck -15.3851 -4.61009 -2.23184
upperneck 14.2294 -6.71878 5.10377
head 7.14348 -2.91209 1.29851
rclavicle 9.93923e-016 -2.38542e-015
rhumerus -2.48303 24.7002 -99.4194
rradius 106.185
rwrist -51.3307
rhand -32.4234 -0.788691
rfingers 7.12502
rthumb -5.65752 -30.6932
lclavicle 9.93923e-016 -2.38542e-015
lhumerus 7.01537 -35.4279 83.8347
lradius 100.127
lwrist 2.85574
lhand -26.7873 29.4542
lfingers 7.12502
lthumb -0.214625 59.4338
rfemur -10.8541 9.94201 15.8203
rtibia 21.1389
rfoot -1.79957 14.3305
rtoes 25.586
lfemur -10.2526 -8.08422 -17.0274
ltibia 20.4053
lfoot -27.9722 14.1285
ltoes 3.27546
